<svg width="358" height="203" xmlns="http://www.w3.org/2000/svg" xmlns:xlink="http://www.w3.org/1999/xlink" xml:space="preserve" overflow="hidden"><defs><clipPath id="clip0"><rect x="454" y="258" width="358" height="203"/></clipPath><clipPath id="clip1"><rect x="455" y="259" width="357" height="202"/></clipPath><clipPath id="clip2"><rect x="455" y="259" width="357" height="202"/></clipPath><clipPath id="clip3"><rect x="455" y="259" width="370" height="202"/></clipPath><clipPath id="clip4"><rect x="455" y="259" width="370" height="202"/></clipPath><clipPath id="clip5"><rect x="455" y="259" width="370" height="202"/></clipPath><clipPath id="clip6"><rect x="455" y="259" width="370" height="202"/></clipPath><clipPath id="clip7"><rect x="455" y="259" width="534" height="202"/></clipPath></defs><g clip-path="url(#clip0)" transform="translate(-454 -258)"><g clip-path="url(#clip1)"><g clip-path="url(#clip2)"><g clip-path="url(#clip3)"><g clip-path="url(#clip4)"><g clip-path="url(#clip5)"><g clip-path="url(#clip6)"><g clip-path="url(#clip7)"><path d="M380.746 26.6407C380.746 21.8668 383.61 18.0478 387.786 18.0478 391.968 18.0478 394.831 21.8668 394.831 26.6407 394.831 31.4146 391.968 35.2337 387.786 35.2337 383.61 35.2337 380.746 31.4146 380.746 26.6407M392.442 26.6407C392.442 22.8216 390.412 20.3166 387.786 20.3166 385.16 20.3166 383.13 22.8216 383.13 26.6407 383.13 30.4598 385.16 32.9648 387.786 32.9648 390.412 32.9648 392.442 30.4598 392.442 26.6407M397.94 34.9925 400.087 34.9925 400.087 18.2914 397.942 18.2914ZM403.676 34.9925 405.821 34.9925 405.821 18.2914 403.676 18.2914ZM408.567 33.2035 410.002 31.8919C410.48 32.6081 411.195 33.2035 412.153 33.2035 413.226 33.2035 413.942 32.6081 413.942 31.7713 413.942 30.8165 413.108 30.4573 412.032 29.9824 410.719 29.3844 409.048 28.6457 409.048 26.5226 409.048 24.8493 410.238 23.299 412.389 23.299 413.716 23.2852 414.983 23.8515 415.856 24.8492L414.444 26.1156C414.206 25.8769 413.703 25.2085 412.63 25.2085 411.793 25.2085 411.198 25.8065 411.198 26.5226 411.198 27.4774 412.153 27.9522 413.226 28.4297 414.708 29.0729 416.093 29.8869 416.093 31.8919 416.093 33.8015 414.66 35.2312 412.271 35.2312 410.002 35.2312 408.691 33.4422 408.57 33.2035M418.246 29.2638C418.246 25.8065 420.394 23.3015 423.259 23.3015 425.646 23.3015 426.959 25.0879 427.317 25.6859L425.766 26.8794C425.527 26.402 424.691 25.3266 423.259 25.3266 421.588 25.3266 420.394 26.9974 420.394 29.2638 420.394 31.6985 421.633 33.2035 423.259 33.2035 424.811 33.2035 425.766 32.01 426.005 31.6532L427.437 32.8442C427.08 33.4422 425.648 35.2312 423.259 35.2312 420.394 35.2312 418.246 32.7261 418.246 29.2638M428.995 29.2638C428.995 25.8065 431.143 23.3015 434.007 23.3015 436.874 23.3015 439.025 25.8065 439.025 29.2638 439.025 32.7261 436.874 35.2312 434.007 35.2312 431.143 35.2312 428.995 32.7261 428.995 29.2638M436.874 29.2638C436.874 26.9974 435.681 25.3266 434.007 25.3266 432.337 25.3266 431.143 26.9974 431.143 29.2638 431.143 31.5327 432.337 33.2035 434.007 33.2035 435.681 33.2035 436.874 31.5327 436.874 29.2638M441.532 19.7211C441.532 19.005 442.13 18.4071 442.847 18.4071 443.565 18.4071 444.16 19.005 444.16 19.7211 444.154 20.4436 443.569 21.0272 442.847 21.0327 442.124 21.0272 441.539 20.4436 441.532 19.7211ZM441.774 34.9925 443.922 34.9925 443.922 23.5377 441.774 23.5377 441.774 34.995ZM447.387 34.9925 449.535 34.9925 449.535 18.2914 447.387 18.2914ZM384.684 48.4071 380.746 48.4071 380.746 46.1407 391.01 46.1407 391.01 48.4071 387.07 48.4071 387.07 62.8467 384.684 62.8467 384.684 48.4071M391.492 57.118C391.492 53.6583 393.643 51.1507 396.507 51.1507 399.372 51.1507 401.281 53.6583 401.281 56.7588 401.281 57.3568 401.161 57.9548 401.161 57.9548L393.688 57.9548C393.879 59.7462 395.075 61.0552 396.744 61.0552 398.535 61.0552 399.613 59.8643 399.731 59.6231L400.924 60.9371C399.972 62.3011 398.407 63.1054 396.744 63.0854 393.571 63.0854 391.492 60.4573 391.492 57.118M399.11 56.0427C398.942 54.2311 397.866 53.1783 396.507 53.1783 395.12 53.1783 394.07 54.2789 393.711 56.0427L399.11 56.0427M403.794 47.5729C403.794 46.8567 404.392 46.2588 405.108 46.2588 405.824 46.2588 406.422 46.8567 406.422 47.5729 406.415 48.2953 405.83 48.8789 405.108 48.8844 404.385 48.8803 403.799 48.2959 403.794 47.5729ZM404.035 62.8467 406.181 62.8467 406.181 51.3894 404.035 51.3894 404.035 62.8467ZM408.932 57.118C408.932 53.6583 411.08 51.1507 413.945 51.1507 416.334 51.1507 417.645 52.9397 418.005 53.5377L416.452 54.7312C416.214 54.2537 415.374 53.1809 413.945 53.1809 412.274 53.1809 411.08 54.8518 411.08 57.118 411.08 59.5502 412.322 61.0552 413.945 61.0552 415.497 61.0552 416.452 59.8643 416.691 59.505L418.123 60.6985C417.766 61.294 416.334 63.0854 413.945 63.0854 411.08 63.0854 408.932 60.5779 408.932 57.118M420.512 51.3894 422.664 51.3894 422.664 52.7035 422.733 52.7035C423.377 51.7232 424.476 51.138 425.648 51.1507 427.917 51.1507 429.35 52.5829 429.35 55.5678L429.35 62.8442 427.201 62.8442 427.201 55.6859C427.201 54.1357 426.364 53.1809 425.17 53.1809 423.621 53.1809 422.664 54.1357 422.664 56.0452L422.664 62.8442 420.512 62.8442 420.512 51.3894M432.103 57.118C432.103 53.6583 434.248 51.1507 437.115 51.1507 439.98 51.1507 441.889 53.6583 441.889 56.7588 441.889 57.3568 441.769 57.9548 441.769 57.9548L434.296 57.9548C434.487 59.7462 435.683 61.0552 437.352 61.0552 439.143 61.0552 440.221 59.8643 440.339 59.6231L441.532 60.9371C440.58 62.3011 439.015 63.1054 437.352 63.0854 434.179 63.0854 432.1 60.4573 432.1 57.118M439.718 56.0427C439.55 54.2311 438.474 53.1783 437.115 53.1783 435.728 53.1783 434.678 54.2789 434.319 56.0427L439.718 56.0427M444.043 57.118C444.043 53.6583 446.191 51.1507 449.058 51.1507 451.922 51.1507 454.073 53.6583 454.073 57.118 454.073 60.5779 451.922 63.0854 449.058 63.0854 446.193 63.0854 444.043 60.5779 444.043 57.118M451.922 57.118C451.922 54.8518 450.729 53.1809 449.058 53.1809 447.384 53.1809 446.193 54.8518 446.193 57.118 446.193 59.3869 447.384 61.0552 449.058 61.0552 450.729 61.0552 451.922 59.3869 451.922 57.118M456.942 62.8442 459.09 62.8442 459.09 46.1382 456.942 46.1382ZM461.839 59.8618C461.839 58.0728 462.914 56.6633 465.183 56.1659L468.165 55.495 468.165 55.1381C468.165 54.0151 467.452 53.1783 466.256 53.1783 464.824 53.1783 464.058 54.2085 463.819 54.5653L462.437 53.2989C462.676 52.9397 463.869 51.1533 466.376 51.1533 468.763 51.1533 470.317 52.7035 470.317 55.0905L470.317 62.8442 468.165 62.8442 468.165 61.294 468.096 61.294C467.555 62.4064 466.42 63.105 465.183 63.0854 463.274 63.0854 461.842 61.7739 461.842 59.8618M468.165 57.9522 468.165 57.1884 465.661 57.809C464.585 58.0728 463.987 58.6684 463.987 59.6231 463.962 60.4553 464.616 61.1505 465.448 61.1758 465.478 61.1766 465.508 61.1767 465.537 61.1758 467.096 61.1758 468.165 59.8618 468.165 57.9522M473.779 62.8442 475.93 62.8442 475.93 51.3894 473.779 51.3894 473.779 62.8467ZM475.452 46.0201 477.838 46.0201 475.691 49.4824 474.02 49.4824 475.452 46.0201ZM478.68 57.118C478.68 53.6583 480.829 51.1507 483.694 51.1507 486.557 51.1507 488.709 53.6583 488.709 57.118 488.709 60.5779 486.56 63.0854 483.694 63.0854 480.829 63.0854 478.68 60.5779 478.68 57.118M486.56 57.118C486.56 54.8518 485.364 53.1809 483.695 53.1809 482.02 53.1809 480.832 54.8518 480.832 57.118 480.832 59.3869 482.02 61.0552 483.695 61.0552 485.364 61.0552 486.56 59.3869 486.56 57.118M490.859 57.118C490.859 53.6583 493.009 51.1507 495.871 51.1507 498.263 51.1507 499.575 52.9397 499.934 53.5377L498.382 54.7312C498.143 54.2537 497.304 53.1809 495.871 53.1809 494.203 53.1809 493.007 54.8518 493.007 57.118 493.007 59.5502 494.248 61.0552 495.871 61.0552 497.424 61.0552 498.384 59.8643 498.618 59.505L500.051 60.6985C499.695 61.294 498.263 63.0854 495.871 63.0854 493.007 63.0854 490.859 60.5779 490.859 57.118M502.565 46.1407 504.715 46.1407 504.715 52.7035 504.786 52.7035C505.429 51.724 506.526 51.1389 507.699 51.1507 509.969 51.1507 511.399 52.5829 511.399 55.5678L511.399 62.8467 509.251 62.8467 509.251 55.6859C509.251 54.1357 508.414 53.1783 507.221 53.1783 505.668 53.1783 504.715 54.1331 504.715 56.0427L504.715 62.8467 502.565 62.8467 502.565 46.1407M515.344 59.7437 515.344 53.4171 513.671 53.4171 513.671 51.3894 514.625 51.3894C515.223 51.3894 515.583 51.0301 515.583 50.314L515.583 47.6884 517.492 47.6884 517.492 51.3894 519.522 51.3894 519.522 53.4171 517.492 53.4171 517.492 59.6231C517.492 60.5779 517.97 61.0552 518.807 61.0552 519.283 61.0552 519.641 60.9346 519.879 60.814L519.879 62.8442C519.522 62.9623 518.924 63.0804 518.329 63.0804 516.417 63.0804 515.344 62.01 515.344 59.7387M521.673 59.8618C521.673 58.0728 522.746 56.6633 525.015 56.1659L527.997 55.495 527.997 55.1381C527.997 54.0151 527.284 53.1783 526.088 53.1783 524.656 53.1783 523.894 54.2085 523.653 54.5653L522.271 53.2989C522.509 52.9397 523.703 51.1533 526.211 51.1533 528.598 51.1533 530.151 52.7035 530.151 55.0905L530.151 62.8442 527.997 62.8442 527.997 61.294 527.93 61.294C527.388 62.4064 526.252 63.1048 525.015 63.0854 523.105 63.0854 521.673 61.7739 521.673 59.8618M527.997 57.9522 527.997 57.1884 525.493 57.809C524.42 58.0728 523.822 58.6684 523.822 59.6231 523.796 60.4553 524.45 61.1505 525.283 61.1758 525.312 61.1767 525.343 61.1767 525.374 61.1758 526.926 61.1758 527.997 59.8618 527.997 57.9522M380.746 137.799 382.229 136.176C383.06 137.367 384.208 138.035 385.52 138.035 386.952 138.035 387.907 136.965 387.907 135.774 387.907 134.005 386.593 133.261 385.068 132.525 383.229 131.64 381.341 130.399 381.341 127.417 381.341 124.912 383.13 123.12 385.877 123.12 387.547 123.12 388.982 123.957 389.937 125.269L388.359 126.773C387.826 125.916 386.888 125.392 385.877 125.389 384.565 125.389 383.728 126.223 383.728 127.417 383.728 129.183 385.16 129.922 386.547 130.663 388.269 131.593 390.296 132.787 390.296 135.771 390.296 138.512 388.145 140.304 385.402 140.304 383.523 140.321 381.766 139.376 380.746 137.799M392.449 134.337C392.449 130.877 394.598 128.372 397.462 128.372 400.326 128.372 402.478 130.877 402.478 134.337 402.478 137.797 400.329 140.304 397.462 140.304 394.598 140.304 392.449 137.797 392.449 134.337M400.329 134.337C400.329 132.07 399.133 130.402 397.462 130.402 395.792 130.402 394.598 132.07 394.598 134.337 394.598 136.606 395.792 138.276 397.462 138.276 399.133 138.276 400.326 136.606 400.326 134.337M405.229 135.889 405.229 128.61 407.376 128.61 407.376 135.771C407.376 137.321 408.213 138.276 409.407 138.276 410.96 138.276 411.915 137.321 411.915 135.412L411.915 128.61 414.062 128.61 414.062 140.068 411.915 140.068 411.915 138.754 411.841 138.754C411.243 139.708 410.123 140.304 408.927 140.304 406.661 140.304 405.229 138.872 405.229 135.889M418.246 136.962 418.246 130.64 416.573 130.64 416.573 128.61 417.527 128.61C418.123 128.61 418.484 128.254 418.484 127.538L418.484 124.91 420.394 124.91 420.394 128.61 422.425 128.61 422.425 130.64 420.394 130.64 420.394 136.845C420.394 137.799 420.871 138.276 421.708 138.276 422.186 138.276 422.542 138.156 422.779 138.038L422.779 140.066C422.278 140.222 421.756 140.302 421.231 140.304 419.316 140.304 418.246 139.231 418.246 136.962M425.653 123.359 427.801 123.359 427.801 129.922 427.869 129.922C428.467 128.968 429.59 128.372 430.783 128.372 433.055 128.372 434.487 129.804 434.487 132.787L434.487 140.066 432.339 140.066 432.339 132.907C432.339 131.354 431.5 130.399 430.307 130.399 428.753 130.399 427.801 131.354 427.801 133.263L427.801 140.066 425.651 140.066 425.651 123.359M443.208 123.359 452.52 123.359 452.52 125.628 445.595 125.628 445.595 130.281 451.088 130.281 451.088 132.553 445.595 132.553 445.595 137.799 452.762 137.799 452.762 140.068 443.208 140.068 443.208 123.361M454.673 137.082C454.673 135.291 455.749 133.884 458.015 133.385L460.997 132.713 460.997 132.357C460.997 131.236 460.283 130.399 459.09 130.399 457.658 130.399 456.894 131.427 456.653 131.784L455.271 130.518C455.51 130.161 456.703 128.372 459.211 128.372 461.598 128.372 463.15 129.922 463.15 132.309L463.15 140.063 460.997 140.063 460.997 138.515 460.929 138.515C460.388 139.627 459.251 140.324 458.015 140.304 456.105 140.304 454.673 138.992 454.673 137.082M460.997 135.173 460.997 134.41 458.495 135.031C457.42 135.291 456.822 135.889 456.822 136.842 456.796 137.673 457.45 138.369 458.282 138.395 458.313 138.395 458.344 138.395 458.374 138.395 459.927 138.395 460.997 137.082 460.997 135.173M465.9 138.276 467.331 136.962C467.809 137.678 468.525 138.276 469.48 138.276 470.556 138.276 471.271 137.678 471.271 136.845 471.271 135.889 470.437 135.53 469.361 135.052 468.048 134.457 466.376 133.719 466.376 131.593 466.376 129.922 467.567 128.372 469.719 128.372 471.271 128.372 472.465 129.088 473.184 129.922L471.773 131.189C471.535 130.95 471.032 130.279 469.96 130.279 469.123 130.279 468.525 130.877 468.525 131.593 468.525 132.548 469.48 133.025 470.556 133.502 472.037 134.148 473.422 134.96 473.422 136.962 473.422 138.872 471.987 140.304 469.6 140.304 467.331 140.304 466.02 138.515 465.9 138.276M477.008 136.962 477.008 130.64 475.337 130.64 475.337 128.61 476.291 128.61C476.887 128.61 477.246 128.254 477.246 127.538L477.246 124.91 479.156 124.91 479.156 128.61 481.186 128.61 481.186 130.64 479.156 130.64 479.156 136.845C479.156 137.799 479.633 138.276 480.469 138.276 480.947 138.276 481.303 138.156 481.542 138.038L481.542 140.066C481.186 140.186 480.588 140.304 479.992 140.304 478.077 140.304 477.008 139.231 477.008 136.962M384.684 153.48 380.746 153.48 380.746 151.213 391.01 151.213 391.01 153.48 387.07 153.48 387.07 167.92 384.684 167.92 384.684 153.48M391.492 162.191C391.492 158.731 393.643 156.224 396.507 156.224 399.372 156.224 401.281 158.731 401.281 161.832 401.281 162.43 401.161 163.025 401.161 163.025L393.688 163.025C393.879 164.816 395.075 166.128 396.744 166.128 398.535 166.128 399.613 164.935 399.731 164.696L400.924 166.007C399.973 167.372 398.408 168.177 396.744 168.159 393.571 168.159 391.492 165.533 391.492 162.191M399.11 161.115C398.942 159.301 397.866 158.254 396.507 158.254 395.12 158.254 394.07 159.349 393.711 161.118L399.11 161.118M403.437 162.191C403.437 158.731 405.585 156.224 408.45 156.224 410.839 156.224 412.151 158.015 412.51 158.611L410.958 159.804C410.719 159.326 409.882 158.254 408.45 158.254 406.778 158.254 405.585 159.924 405.585 162.191 405.585 164.623 406.826 166.128 408.45 166.128 410.002 166.128 410.958 164.935 411.195 164.578L412.628 165.768C412.271 166.366 410.839 168.156 408.45 168.156 405.585 168.156 403.437 165.651 403.437 162.191M415.141 151.213 417.289 151.213 417.289 157.776 417.362 157.776C417.96 156.822 419.077 156.226 420.271 156.226 422.542 156.226 423.975 157.659 423.975 160.638L423.975 167.92 421.827 167.92 421.827 160.759C421.827 159.206 420.99 158.252 419.796 158.252 418.243 158.252 417.289 159.206 417.289 161.115L417.289 167.92 415.141 167.92 415.141 151.213M427.324 156.462 429.472 156.462 429.472 157.774 429.545 157.774C430.141 156.822 431.261 156.224 432.454 156.224 434.726 156.224 436.158 157.656 436.158 160.641L436.158 167.917 434.009 167.917 434.009 160.756C434.009 159.209 433.174 158.252 431.98 158.252 430.427 158.252 429.472 159.206 429.472 161.115L429.472 167.917 427.324 167.917 427.324 156.462M438.909 162.191C438.909 158.731 441.058 156.224 443.919 156.224 446.786 156.224 448.937 158.731 448.937 162.191 448.937 165.651 446.786 168.159 443.919 168.159 441.055 168.159 438.909 165.651 438.909 162.191M446.786 162.191C446.786 159.924 445.593 158.254 443.919 158.254 442.249 158.254 441.055 159.924 441.055 162.191 441.055 164.457 442.249 166.128 443.919 166.128 445.593 166.128 446.786 164.457 446.786 162.191M451.809 167.917 453.952 167.917 453.952 151.213 451.806 151.213ZM456.823 162.191C456.823 158.731 458.972 156.224 461.834 156.224 464.703 156.224 466.852 158.731 466.852 162.191 466.852 165.651 464.703 168.159 461.834 168.159 458.97 168.159 456.823 165.651 456.823 162.191M464.703 162.191C464.703 159.924 463.507 158.254 461.834 158.254 460.166 158.254 458.97 159.924 458.97 162.191 458.97 164.457 460.166 166.128 461.834 166.128 463.507 166.128 464.703 164.457 464.703 162.191M469.289 170.59 470.676 169.276C470.915 169.635 471.869 171.02 473.54 171.02 475.332 171.02 476.525 169.467 476.525 167.322L476.525 166.01 476.452 166.01C475.815 167.071 474.659 167.709 473.422 167.681 470.796 167.681 469.005 165.294 469.005 161.952 469.005 158.611 470.796 156.224 473.422 156.224 475.093 156.224 476 157.178 476.452 157.894L476.527 157.894 476.527 156.462 478.673 156.462 478.673 167.322C478.673 170.545 476.645 172.93 473.66 172.93 470.796 172.93 469.648 171.07 469.289 170.592M476.525 161.949C476.525 159.708 475.402 158.133 473.851 158.133 472.344 158.133 471.153 159.683 471.153 161.952 471.153 164.218 472.347 165.771 473.851 165.771 475.402 165.771 476.525 164.196 476.525 161.952M481.784 152.645C481.784 151.93 482.382 151.332 483.097 151.332 483.814 151.332 484.409 151.93 484.409 152.645 484.404 153.368 483.82 153.953 483.097 153.96 482.375 153.953 481.791 153.369 481.784 152.645ZM482.023 167.917 484.173 167.917 484.173 156.462 482.023 156.462 482.023 167.92ZM486.922 162.191C486.922 158.731 489.07 156.224 491.935 156.224 494.322 156.224 495.635 158.015 495.993 158.611L494.442 159.804C494.203 159.326 493.364 158.254 491.935 158.254 490.261 158.254 489.07 159.924 489.07 162.191 489.07 164.623 490.309 166.128 491.935 166.128 493.487 166.128 494.442 164.935 494.681 164.578L496.113 165.768C495.756 166.366 494.324 168.156 491.935 168.156 489.07 168.156 486.922 165.651 486.922 162.191M497.789 164.935C497.789 163.145 498.861 161.736 501.13 161.236L504.112 160.568 504.112 160.209C504.112 159.09 503.399 158.252 502.203 158.252 500.771 158.252 500.005 159.281 499.766 159.638L498.384 158.372C498.626 158.013 499.817 156.226 502.324 156.226 504.71 156.226 506.266 157.776 506.266 160.163L506.266 167.917 504.112 167.917 504.112 166.366 504.043 166.366C503.501 167.478 502.366 168.175 501.13 168.156 499.221 168.156 497.789 166.844 497.789 164.935M504.112 163.025 504.112 162.262 501.608 162.882C500.535 163.145 499.937 163.743 499.937 164.696 499.937 165.651 500.654 166.249 501.487 166.249 503.04 166.249 504.112 164.935 504.112 163.028M509.852 167.917 511.997 167.917 511.997 151.213 509.852 151.213ZM380.746 190.042 380.746 179.066 383.133 179.066 383.133 189.925C383.133 192.312 384.565 193.739 386.356 193.739 388.145 193.739 389.58 192.309 389.58 189.925L389.58 179.066 391.968 179.066 391.968 190.042C391.968 193.382 389.58 196.01 386.356 196.01 383.133 196.01 380.746 193.382 380.746 190.042M395.553 184.314 397.703 184.314 397.703 185.625 397.776 185.625C398.374 184.671 399.494 184.076 400.688 184.076 402.957 184.076 404.392 185.508 404.392 188.492L404.392 195.769 402.241 195.769 402.241 188.608C402.241 187.06 401.405 186.106 400.211 186.106 398.66 186.106 397.703 187.06 397.703 188.97L397.703 195.769 395.555 195.769 395.555 184.314M407.498 180.497C407.498 179.781 408.096 179.186 408.811 179.186 409.528 179.186 410.123 179.781 410.123 180.497 410.116 181.219 409.533 181.802 408.811 181.809 408.09 181.802 407.506 181.219 407.498 180.497ZM407.737 195.769 409.887 195.769 409.887 184.314 407.737 184.314 407.737 195.771ZM411.92 184.314 414.306 184.314 416.907 192.787 416.982 192.787 419.678 184.314 421.947 184.314 418.125 195.771 415.739 195.771 411.92 184.314M423.382 190.042C423.382 186.583 425.532 184.076 428.394 184.076 431.261 184.076 433.174 186.583 433.174 189.683 433.174 190.281 433.05 190.877 433.05 190.877L425.578 190.877C425.768 192.666 426.964 193.98 428.635 193.98 430.424 193.98 431.5 192.787 431.62 192.548L432.814 193.861C431.862 195.225 430.298 196.03 428.635 196.01 425.46 196.01 423.384 193.382 423.384 190.042M430.997 188.968C430.831 187.154 429.758 186.103 428.394 186.103 427.012 186.103 425.962 187.201 425.603 188.968L430.999 188.968M435.922 184.314 438.072 184.314 438.072 185.625 438.143 185.625C438.502 185.03 439.507 184.076 441.176 184.076L441.535 184.076 441.535 186.344 440.819 186.344C439.146 186.344 438.072 187.56 438.072 189.444L438.072 195.769 435.922 195.769 435.922 184.314M442.97 193.98 444.402 192.666C444.88 193.382 445.595 193.98 446.552 193.98 447.625 193.98 448.341 193.382 448.341 192.548 448.341 191.593 447.508 191.233 446.432 190.759 445.117 190.161 443.447 189.422 443.447 187.297 443.447 185.628 444.641 184.078 446.791 184.078 448.341 184.078 449.535 184.794 450.254 185.628L448.847 186.892C448.605 186.656 448.103 185.985 447.03 185.985 446.193 185.985 445.595 186.58 445.595 187.297 445.595 188.251 446.55 188.729 447.625 189.206 449.108 189.852 450.495 190.663 450.495 192.666 450.495 194.578 449.06 196.008 446.671 196.008 444.402 196.008 443.09 194.222 442.97 193.98M453.002 180.497C453.002 179.781 453.6 179.186 454.316 179.186 455.032 179.186 455.628 179.781 455.628 180.497 455.621 181.219 455.038 181.802 454.316 181.809 453.594 181.802 453.01 181.219 453.002 180.497ZM453.241 195.769 455.392 195.769 455.392 184.314 453.241 184.314 453.241 195.771ZM459.57 192.666 459.57 186.344 457.899 186.344 457.899 184.317 458.854 184.317C459.449 184.317 459.809 183.957 459.809 183.241L459.809 180.616 461.718 180.616 461.718 184.317 463.748 184.317 463.748 186.344 461.718 186.344 461.718 192.55C461.718 193.502 462.196 193.983 463.033 193.983 463.509 193.983 463.867 193.861 464.105 193.741L464.105 195.771C463.748 195.889 463.15 196.008 462.555 196.008 460.641 196.008 459.57 194.937 459.57 192.666M465.902 200.422 465.902 198.515C466.237 198.675 466.605 198.756 466.977 198.751 467.694 198.751 468.241 198.395 468.528 197.535L469.123 195.769 465.304 184.314 467.57 184.314 470.248 192.789 470.317 192.789 472.947 184.314 475.095 184.314 470.798 197.438C470.055 199.708 469.123 200.779 467.333 200.779 466.837 200.762 466.349 200.64 465.902 200.422M226.979 195.339 226.979 122.545 204.246 122.545 204.246 104.99 269.467 104.99 269.467 122.545 246.737 122.545 246.737 195.339 226.977 195.339M302.267 159.844C302.267 172.365 307.99 179.077 318.824 179.077 329.528 179.077 335.256 172.365 335.256 159.844L335.256 104.99 354.301 104.99 354.301 159.977C354.301 181.786 341.354 196.628 318.824 196.628 296.166 196.628 283.221 181.786 283.221 159.977L283.221 104.99 302.267 104.99 302.267 159.844M203.254 63.4347 203.254 61.6935 223.537 61.6935 223.537 62.9422C223.537 71.1256 228.452 75.4146 236.51 75.4146 242.048 75.4146 245.949 73.5176 247.849 70.3743 248.603 68.9974 248.967 67.4648 248.967 65.7236 248.967 64.2161 248.731 62.9422 248.108 61.6935 246.572 59.1734 243.324 57.1457 237.654 56.0301L226.681 53.8718C217.502 52.0025 210.691 47.9723 207.153 41.5528 205.022 37.7588 203.877 33.4975 203.877 28.3267 203.877 22.9221 205.022 18.2713 207.414 14.2437 212.588 5.30151 223.04 0 237.005 0 257.545 0 270.261 10.4498 270.261 29.0804L270.261 30.8467 249.849 30.8467 249.849 29.5754C249.849 21.5176 245.065 17.2563 236.899 17.2563 231.337 17.2563 227.437 19.1281 225.668 22.299 224.781 23.6759 224.419 25.1834 224.419 26.9498 224.419 28.4573 224.679 29.7035 225.304 30.8467 226.811 33.4975 230.088 35.2412 235.756 36.3844L246.572 38.5125C255.907 40.4096 262.696 44.6985 266.359 51.118 268.495 54.8869 269.508 59.1734 269.508 64.4497 269.508 69.7512 268.364 74.5326 266.101 78.5603 260.824 87.4999 250.37 92.6457 236.379 92.6457 215.864 92.6457 203.254 82.0678 203.254 63.4347M302.287 37.7136 345.829 37.7136 345.829 54.4924 302.287 54.4924 302.287 73.9799 354.296 73.9799 354.296 91.2763 283.236 91.2763 283.236 0.929648 354.294 0.929648 354.294 17.7085 302.284 17.7085 302.284 37.7136M173.412 12.8467C173.932 11.8141 174.359 10.0201 174.359 8.8618L174.359 5.66331C174.359 4.50754 173.744 4.25377 173.271 4.25377 172.797 4.25377 172.211 4.40453 171.688 5.43718L136.728 77.1457 151.754 9.55778 152.65 5.61056C152.907 4.4799 152.169 3.55779 151.01 3.55779L150.226 3.55779C149.065 3.55779 147.91 4.4799 147.651 5.61056L146.583 12.1257 132.251 77.0126 132.251 5.66331C132.248 4.50259 131.309 3.56193 130.148 3.55779L129.515 3.55779C128.354 3.56055 127.412 4.50162 127.409 5.66331L127.409 13.1256 127.261 87.3744C125.789 114.787 108.271 130.851 87.1809 131.065 66.0904 130.851 48.5753 114.864 47.103 87.4523L46.9523 13.1256 46.9523 5.66331C46.9495 4.49965 46.0054 3.55779 44.8417 3.55779L44.2135 3.55779C43.0515 3.56054 42.1096 4.50121 42.1055 5.66331L42.1055 77.0101 27.7789 10.3166 26.7086 5.61056C26.4522 4.4799 25.2965 3.55779 24.1356 3.55779L23.3492 3.55779C22.1934 3.55779 21.4523 4.4799 21.711 5.61056L22.6055 9.55778 37.8166 77.304 2.67337 5.43718C2.15075 4.40201 1.56533 4.25377 1.09045 4.25377 0.615578 4.25377 1.39476e-16 4.50503 1.39476e-16 5.66081L1.39476e-16 8.8618C1.39476e-16 10.0201 0.427135 11.8141 0.949748 12.8467L41.8543 96.0929 1.74372 50.7361C0.959799 49.8844 0 50.4246 0 51.5829L0 53.9321C0 55.0879 0.640703 56.7312 1.42965 57.5854L44.0201 105.641 45.9924 112.523 1.80402 82.1859C0.811557 81.5879 0 82.0452 0 83.2035L0 84.6859C0 85.8416 0.811557 87.2788 1.80402 87.8769L47.4975 119.12 48.4346 123.264 2.0402 107.643C0.917085 107.355 0 108.065 0 109.221L0 110.045C0 111.201 0.917085 112.387 2.0402 112.678L49.6482 128.61 50.3316 131.608 3.1608 131.608C2.00251 131.608 1.1784 132.347 1.33418 133.243 1.48744 134.146 2.902 136.479 4.0603 136.479L51.4397 136.479 52.7462 142.246 9.42965 152.439C8.30653 152.706 7.71106 153.601 8.11055 154.432 8.51256 155.261 10.5552 157.181 11.6784 156.917L53.8266 146.997 56.1005 157.01 26.2186 174.97C25.5151 175.372 25.505 176.186 26.1934 176.787L27.608 178.018C28.2965 178.621 29.4271 178.781 30.1331 178.379L57.2386 162.023 59.9397 173.912 46.5603 188.309C45.9321 188.982 46.0754 189.854 46.8794 190.256L48.5302 191.08C49.3367 191.482 50.4975 191.264 51.1281 190.592L61.2513 179.681 64.4045 193.719C64.6155 194.849 65.5401 195.97 66.4648 196.219L68.3643 196.721C69.294 196.972 69.8769 196.256 69.6658 195.12L65.2638 175.329 76.6055 163.007 84.8165 179.301 78.0854 192.658 76.0879 196.316C75.6055 197.214 75.9372 198.058 76.819 198.199L78.6282 198.484C79.5176 198.626 80.6206 198.013 81.1055 197.113L82.8417 193.94 82.8919 193.952 83.5352 192.676 83.8642 192.068 83.8392 192.068 84.1357 191.485 86.5979 186.595 87.1809 185.44 90.2261 191.485 90.5201 192.068 90.4949 192.068 90.8266 192.676 91.4698 193.952 91.5175 193.94 93.2562 197.113C93.7386 198.013 94.8442 198.626 95.7311 198.484L97.5401 198.199C98.4245 198.058 98.7512 197.214 98.2738 196.316L96.2764 192.658 89.5427 179.301 97.7563 163.007 109.098 175.329 105.531 191.047C105.543 191.047 105.55 191.042 105.562 191.04L104.696 195.12C104.485 196.256 105.065 196.972 105.995 196.723L107.895 196.219C108.824 195.97 109.746 194.849 109.955 193.719L110.61 190.676 113.108 179.681 114.538 181.229 117.588 184.545 120.176 187.352 120.118 187.376 121.751 189.06 122.01 189.344 122.02 189.342 123.234 190.592C123.862 191.264 125.025 191.482 125.832 191.08L127.48 190.256C128.286 189.854 128.432 188.982 127.801 188.312L114.42 173.914 117.12 162.02 140.6 176.281C140.577 176.301 140.554 176.32 140.53 176.339L142.336 177.337 142.689 177.55 142.704 177.538 144.229 178.379C144.933 178.781 146.063 178.621 146.753 178.018L148.168 176.787C148.857 176.184 148.847 175.372 148.144 174.97L118.257 157.01 120.53 146.997 162.679 156.917C163.804 157.181 165.849 155.261 166.249 154.43 166.651 153.601 166.053 152.706 164.928 152.439L121.611 142.246 122.919 136.479 170.302 136.479C171.457 136.479 172.874 134.143 173.027 133.243 173.179 132.347 172.359 131.608 171.2 131.608L124.03 131.608 124.709 128.61 172.322 112.678C173.442 112.387 174.357 111.201 174.357 110.045L174.357 109.221C174.357 108.065 173.442 107.357 172.322 107.646L125.93 123.267 126.867 119.123 172.56 87.8844C173.553 87.2839 174.362 85.8492 174.362 84.6909L174.362 83.2085C174.362 82.0502 173.553 81.5929 172.56 82.1909L128.365 112.523 130.36 105.16 172.932 57.5879C173.716 56.7336 174.359 55.0905 174.359 53.9347L174.359 51.5854C174.359 50.4296 173.402 49.8869 172.618 50.7387L132.429 96.0904 173.412 12.8493ZM95.922 141.206 102.503 142.753 100.694 146.34 94.6005 142.638 95.922 141.206ZM78.4397 141.206 79.7612 142.638 73.6683 146.34 71.8593 142.753 78.4422 141.206ZM56.4372 136.477 63.2412 136.477 64.7286 139.425 57.4925 141.128 56.4372 136.477ZM60.4949 154.342 58.5728 145.88 66.9799 143.902 69.4874 148.877 60.4924 154.339ZM63.9522 169.553 61.6306 159.352 71.6884 153.241 74.2663 158.354 63.9522 169.553ZM75.8643 150.704 83.1256 146.294 84.2487 147.515 77.7914 154.525 75.8643 150.704ZM87.1809 173.158 80.1356 159.176 87.1809 151.525 94.2261 159.176 87.1809 173.158ZM96.5703 154.528 90.1105 147.515 91.2361 146.294 98.4949 150.704 96.5703 154.528ZM110.409 169.553 100.095 158.354 102.674 153.241 112.729 159.349 110.409 169.553ZM113.866 154.339 104.872 148.879 107.376 143.902 115.789 145.88 113.866 154.339ZM116.866 141.128 109.633 139.425 111.121 136.477 117.924 136.477 116.869 141.128ZM392.274 79.2437 394.422 79.2437 394.422 80.5552 394.495 80.5552C395.139 79.575 396.236 78.9899 397.41 79.0025 399.675 79.0025 401.11 80.4346 401.11 83.4195L401.11 90.6985 398.96 90.6985 398.96 83.5377C398.96 81.9874 398.123 81.0326 396.929 81.0326 395.38 81.0326 394.422 81.9874 394.422 83.897L394.422 90.6985 392.274 90.6985 392.274 79.2412M409.116 82.3466C409.116 77.5729 411.98 73.7538 416.158 73.7538 420.336 73.7538 423.201 77.5729 423.201 82.3466 423.201 87.118 420.336 90.9346 416.158 90.9346 411.98 90.9346 409.116 87.1155 409.116 82.3466M420.814 82.3466C420.814 78.5276 418.781 76.0201 416.158 76.0201 413.53 76.0201 411.502 78.5251 411.502 82.3466 411.502 86.1658 413.53 88.6684 416.158 88.6684 418.781 88.6684 420.814 86.1632 420.814 82.3466M425.954 75.4246C425.954 74.7086 426.555 74.1105 427.269 74.1105 427.984 74.1105 428.58 74.7086 428.58 75.4246 428.574 76.147 427.991 76.7318 427.269 76.7387 426.545 76.7318 425.961 76.1475 425.954 75.4246ZM426.196 90.6985 428.344 90.6985 428.344 79.2412 426.196 79.2412 426.196 90.6985ZM431.686 79.2437 433.836 79.2437 433.836 80.5552 433.907 80.5552C434.266 79.9573 435.268 79.0025 436.94 79.0025L437.299 79.0025 437.299 81.2714 436.583 81.2714C434.909 81.2714 433.836 82.4874 433.836 84.3718L433.836 90.6985 431.686 90.6985 431.686 79.2412M438.618 84.9699C438.618 81.2739 440.527 79.0025 443.15 79.0025 444.465 79.0025 445.537 79.4798 446.304 80.6758L446.374 80.6758 446.374 73.9924 448.525 73.9924 448.525 90.6985 446.374 90.6985 446.374 89.2663 446.304 89.2663C445.54 90.4573 444.465 90.9371 443.15 90.9371 440.525 90.9371 438.616 88.6684 438.616 84.9699M446.374 84.9699C446.374 82.5829 445.181 81.0326 443.628 81.0326 441.959 81.0326 440.764 82.701 440.764 84.9699 440.764 87.2361 441.959 88.907 443.628 88.907 445.181 88.907 446.374 87.3543 446.374 84.9699M452.111 73.9924 454.261 73.9924 454.261 80.5527 454.332 80.5527C454.932 79.5979 456.052 79.005 457.246 79.005 459.515 79.005 460.947 80.4372 460.947 83.417L460.947 90.6985 458.799 90.6985 458.799 83.5377C458.799 81.9849 457.962 81.0302 456.769 81.0302 455.215 81.0302 454.261 81.9849 454.261 83.8945L454.261 90.6985 452.113 90.6985 452.113 73.9899M463.698 84.9699C463.698 81.51 465.847 79.0025 468.709 79.0025 471.577 79.0025 473.485 81.51 473.485 84.613 473.485 85.2111 473.367 85.804 473.367 85.804L465.892 85.804C466.086 87.5955 467.279 88.907 468.949 88.907 470.741 88.907 471.814 87.7136 471.937 87.4749L473.128 88.7864C472.178 90.1516 470.612 90.9571 468.949 90.9371 465.773 90.9371 463.698 88.3115 463.698 84.9699M471.314 83.897C471.146 82.0804 470.073 81.0326 468.709 81.0326 467.327 81.0326 466.276 82.1306 465.916 83.897L471.314 83.897M475.998 75.4246C475.998 74.7086 476.596 74.1105 477.311 74.1105 478.03 74.1105 478.628 74.7086 478.628 75.4246 478.622 76.1484 478.035 76.7332 477.311 76.7387 476.589 76.7318 476.005 76.1475 475.998 75.4246ZM476.238 90.6985 478.387 90.6985 478.387 79.2412 476.238 79.2412 476.238 90.6985ZM481.013 88.9096 482.445 87.5955C482.922 88.3115 483.641 88.9096 484.598 88.9096 485.668 88.9096 486.387 88.3115 486.387 87.4773 486.387 86.5226 485.55 86.1632 484.478 85.6859 483.163 85.0879 481.489 84.3517 481.489 82.2261 481.489 80.5527 482.685 79.0025 484.834 79.0025 486.387 79.0025 487.577 79.7186 488.297 80.5527L486.89 81.8215C486.648 81.5803 486.145 80.912 485.076 80.912 484.236 80.912 483.641 81.51 483.641 82.2261 483.641 83.1809 484.595 83.6583 485.668 84.1357 487.15 84.7763 488.538 85.593 488.538 87.5955 488.538 89.505 487.103 90.9371 484.713 90.9371 482.447 90.9371 481.135 89.1457 481.013 88.9096M490.688 84.9699C490.688 81.51 492.836 79.0025 495.701 79.0025 498.09 79.0025 499.402 80.7939 499.761 81.3894L498.209 82.5829C497.972 82.1055 497.133 81.0326 495.701 81.0326 494.03 81.0326 492.836 82.701 492.836 84.9699 492.836 87.4045 494.078 88.907 495.701 88.907 497.253 88.907 498.209 87.7136 498.447 87.3543L499.879 88.5502C499.525 89.1457 498.09 90.9371 495.701 90.9371 492.836 90.9371 490.688 88.4296 490.688 84.9699M502.035 75.4246C502.035 74.7086 502.631 74.1105 503.346 74.1105 504.063 74.1105 504.661 74.7086 504.661 75.4246 504.654 76.1475 504.07 76.7318 503.346 76.7387 502.624 76.7318 502.04 76.1475 502.033 75.4246ZM502.274 90.6985 504.422 90.6985 504.422 79.2412 502.274 79.2412 502.274 90.6985ZM507.766 79.2437 509.915 79.2437 509.915 80.5552 509.989 80.5552C510.347 79.9573 511.352 79.0025 513.02 79.0025L513.38 79.0025 513.38 81.2714 512.663 81.2714C510.989 81.2714 509.915 82.4874 509.915 84.3718L509.915 90.6985 507.766 90.6985 507.766 79.2412M516.367 87.5955 516.367 81.2739 514.696 81.2739 514.696 79.2437 515.65 79.2437C516.243 79.2437 516.606 78.8844 516.606 78.1683L516.606 75.5427 518.515 75.5427 518.515 79.2437 520.545 79.2437 520.545 81.2739 518.515 81.2739 518.515 87.4773C518.515 88.4296 518.993 88.9096 519.829 88.9096 520.306 88.9096 520.664 88.7864 520.901 88.6684L520.901 90.6985C520.545 90.8165 519.947 90.9346 519.352 90.9346 517.442 90.9346 516.367 89.8617 516.367 87.593M380.746 87.3793C380.746 85.5879 381.819 84.1809 384.088 83.6808L387.07 83.0101 387.07 82.6532C387.07 81.5327 386.356 80.6934 385.16 80.6934 383.728 80.6934 382.965 81.7236 382.726 82.0804L381.341 80.8165C381.58 80.4547 382.774 78.6684 385.282 78.6684 387.668 78.6684 389.221 80.2186 389.221 82.6055L389.221 90.3593 387.07 90.3593 387.07 88.8091 387 88.8091C386.46 89.9214 385.324 90.6201 384.088 90.6005 382.178 90.6005 380.746 89.2889 380.746 87.3793M387.07 85.4698 387.07 84.706 384.565 85.3266C383.49 85.5879 382.891 86.1858 382.891 87.1381 382.867 87.9704 383.52 88.6656 384.352 88.6909 384.383 88.6918 384.414 88.6918 384.445 88.6909 385.997 88.6909 387.07 87.3793 387.07 85.4698" fill="#435465" fill-rule="evenodd" fill-opacity="1" transform="matrix(1.00523 0 0 1 455 259.995)"/></g></g></g></g></g></g></g></g></svg>